Coordinates
version=1
nRows=49
nColumns=12
inDegrees=yes

Units are S.I. units (second, meters, Newtons, ...)
Angles are in degrees

endheader
time	SC_y	SC_z	SC_x	AC_y	AC_z	AC_x	GH_y	GH_z	GH_yy	EL_x	PS_y
       0.0              -59.12           3.49          6.483           41.7          9.452         -4.576         -143.6          82.12         -25.66          8.285          81.49
   0.03096              -59.11          3.494          6.488          41.71           9.45         -4.578         -143.6          82.12         -25.65          8.298          81.49
   0.06191              -59.11          3.499          6.493          41.71          9.448         -4.579         -143.6          82.12         -25.64          8.312          81.48
   0.09287               -59.1          3.503          6.498          41.71          9.445         -4.581         -143.6          82.12         -25.63          8.327          81.48
    0.1238               -59.1          3.508          6.504          41.72          9.442         -4.582         -143.6          82.12         -25.62          8.343          81.47
    0.1548              -59.09          3.513           6.51          41.72           9.44         -4.584         -143.6          82.12          -25.6           8.36          81.46
    0.1857              -59.09          3.518          6.516          41.73          9.436         -4.586         -143.5          82.12         -25.59          8.378          81.46
    0.2167              -59.08          3.524          6.523          41.73          9.433         -4.588         -143.5          82.13         -25.58          8.397          81.45
    0.2476              -59.08           3.53           6.53          41.74           9.43          -4.59         -143.5          82.13         -25.56          8.418          81.44
    0.2786              -59.07          3.537          6.537          41.74          9.426         -4.592         -143.5          82.13         -25.54           8.44          81.43
    0.3096              -59.06          3.544          6.546          41.75          9.422         -4.595         -143.4          82.13         -25.53          8.464          81.42
    0.3405              -59.05          3.552          6.555          41.75          9.418         -4.597         -143.4          82.13         -25.51           8.49          81.41
    0.3715              -59.05           3.56          6.564          41.76          9.413           -4.6         -143.4          82.13         -25.49          8.518           81.4
    0.4024              -59.04          3.569          6.575          41.77          9.408         -4.603         -143.3          82.14         -25.46          8.547          81.39
    0.4334              -59.03          3.579          6.586          41.77          9.402         -4.606         -143.3          82.14         -25.44           8.58          81.38
    0.4643              -59.02          3.589          6.598          41.78          9.397          -4.61         -143.3          82.14         -25.41          8.615          81.36
    0.4953              -59.01          3.601          6.611          41.79           9.39         -4.614         -143.2          82.14         -25.38          8.653          81.35
    0.5263              -58.99          3.613          6.626           41.8          9.383         -4.618         -143.2          82.15         -25.35          8.695          81.33
    0.5572              -58.98          3.627          6.642          41.81          9.375         -4.623         -143.1          82.15         -25.32           8.74          81.31
    0.5882              -58.96          3.642          6.659          41.82          9.367         -4.628         -143.0          82.15         -25.28           8.79          81.29
    0.6191              -58.95          3.658          6.678          41.83          9.358         -4.633         -143.0          82.16         -25.24          8.844          81.27
    0.6501              -58.93          3.676          6.699          41.85          9.348         -4.639         -142.9          82.16         -25.19          8.904          81.25
     0.681              -58.91          3.696          6.722          41.86          9.337         -4.646         -142.8          82.16         -25.14           8.97          81.22
     0.712              -58.89          3.718          6.747          41.88          9.324         -4.654         -142.7          82.17         -25.09          9.044          81.19
    0.7429              -58.86          3.742          6.776           41.9           9.31         -4.662         -142.6          82.17         -25.03          9.125          81.16
    0.7739              -58.83           3.77          6.808          41.92          9.295         -4.671         -142.5          82.18         -24.96          9.216          81.12
    0.8049               -58.8            3.8          6.843          41.94          9.278         -4.682         -142.4          82.19         -24.88          9.319          81.08
    0.8358              -58.77          3.835          6.883          41.97          9.259         -4.693         -142.3          82.19          -24.8          9.433          81.04
    0.8668              -58.73          3.874          6.928           42.0          9.237         -4.707         -142.1           82.2          -24.7          9.563          80.99
    0.8977              -58.69          3.918          6.979          42.03          9.212         -4.722         -142.0          82.21         -24.59           9.71          80.93
    0.9287              -58.63          3.968          7.038          42.07          9.183         -4.739         -141.8          82.22         -24.46          9.878          80.86
    0.9596              -58.58          4.026          7.105          42.12          9.151         -4.758         -141.5          82.24         -24.32          10.07          80.78
    0.9906              -58.51          4.093          7.182          42.17          9.113         -4.781         -141.3          82.25         -24.15          10.29           80.7
     1.022              -58.43          4.171          7.272          42.23           9.07         -4.808         -140.9          82.27         -23.95          10.55          80.59
     1.053              -58.34          4.261          7.378           42.3          9.019         -4.838         -140.6          82.29         -23.73          10.86          80.47
     1.083              -58.23          4.369          7.502          42.38          8.958         -4.875         -140.2          82.31         -23.46          11.21          80.33
     1.114               -58.1          4.496           7.65          42.48          8.887         -4.918         -139.7          82.34         -23.14          11.64          80.16
     1.145              -57.95          4.648          7.827           42.6          8.801          -4.97         -139.1          82.38         -22.76          12.15          79.96
     1.176              -57.76          4.833          8.041          42.74          8.697         -5.033         -138.3          82.42         -22.29          12.76          79.72
     1.207              -57.54          5.058          8.302          42.91          8.571         -5.109         -137.4          82.47         -21.73          13.51          79.42
     1.238              -57.26          5.336          8.625          43.13          8.414         -5.204         -136.3          82.53         -21.03          14.44          79.05
     1.269              -56.91          5.683          9.027           43.4          8.219         -5.322         -134.9          82.61         -20.16           15.6          78.59
       1.3              -56.47           6.12          9.534          43.73          7.973          -5.47         -133.2           82.7         -19.06          17.05          78.02
     1.331              -55.91          6.676          10.18          44.16          7.661         -5.659         -131.0          82.83         -17.67           18.9          77.28
     1.362              -55.19          7.387           11.0          44.71          7.261         -5.901         -128.2          82.99         -15.88          21.28          76.34
     1.393              -54.27            8.3          12.06          45.41          6.748         -6.211         -124.6          83.19         -13.59          24.32          75.14
     1.424              -53.09          9.465          13.41          46.31          6.093         -6.607         -119.9          83.45         -10.67           28.2           73.6
     1.455              -51.62          10.93          15.11          47.44          5.269         -7.106         -114.1          83.78         -6.992          33.09          71.66
     1.486              -49.82          12.72          17.19          48.82          4.264         -7.713         -107.0          84.18          -2.51          39.04           69.3
